<svg class="learning_curve_book" version="1.1" xmlns="http://www.w3.org/2000/svg" xmlns:xlink="http://www.w3.org/1999/xlink" preserveAspectRatio="xMidYMid meet" viewBox="0 0 800 535"><defs><path id="Kghox1FZFM" d="M391.320716373393 53.24972671967116 L427.8071863213115 53.24972671967116 L427.8071863213115 418.81488799543337 L391.320716373393 418.81488799543337 L391.320716373393 53.24972671967116  Z "></path><path id="b9reffAVQB" d="M139.8932749653685 48.93627348927876 L394.4755615192656 48.93627348927876 L394.4755615192656 423.1283412258259 L139.8932749653685 423.1283412258259 L139.8932749653685 48.93627348927876  Z "></path><path id="Qv5cj9QN1F" d="M426.5726816990135 48.936273489278705 L681.1549682529106 48.936273489278705 L681.1549682529106 423.12834122582586 L426.5726816990135 423.12834122582586 L426.5726816990135 48.936273489278705  Z "></path><path id="O7wFXv7Kqb" d="M449 48.15625 L449 436.046875 L461.5 427.6875 L474 436.046875 L474 48.15625 C470 46.92708333333333 465.8333333333333 46.20052083333333 461.5 45.9765625 C457.16666666666663 45.752604166666664 453 46.479166666666664 449 48.15625  Z "></path><path id="jDCz3LxfqD" d="M173.91073566869107 61.74425894562037 L389.8118773905844 61.74425894562037 L410.661288789395 70.91731412519573 L430.9620314671842 61.74425894562037 L647.1375075495881 61.74425894562037 L647.1375075495881 410.3203557694841 L431.78503454871617 410.3203557694841 L410.661288789395 401.14730058990875 L390.63488047211644 410.3203557694841 L173.91073566869107 410.3203557694841 L173.91073566869107 61.74425894562037  Z "></path><path id="Dw5xMvjLTZ" d="M389.51010959402265 63.390265108684375 L390.058778315044 408.7292164785222 L410.7435890975481 399.2612518613979 L410.7092973024844 72.74849598160449 L389.51010959402265 63.390265108684375  Z "></path><linearGradient id="gradientft7udq2vTu" gradientUnits="userSpaceOnUse" x1="351.1032991225296" y1="309.43389469168704" x2="411.11394048423756" y2="315.0920408772195"><stop style="stop-color:rgba(255,255,255,1)" offset="0%"></stop><stop style="stop-color:rgba(232,239,240,1)" offset="100%"></stop></linearGradient><path id="dDigh7Bsx1" d="M431.29809105880975 63.49999885288875 L432.12109414034177 408.7292164785224 L410.7230140205099 399.37098560560224 L410.70243894347146 72.69362910950247 L431.29809105880975 63.49999885288875  Z "></path><linearGradient id="gradientApsuFwpwJq" gradientUnits="userSpaceOnUse" x1="470.52790461183486" y1="309.54362843589143" x2="410.51726325012686" y2="315.2017746214239"><stop style="stop-color:rgba(255,255,255,1)" offset="0%"></stop><stop style="stop-color:rgba(232,239,240,1)" offset="100%"></stop></linearGradient><path id="fwoop4EIbZ" d="M151.79252785251867 66.54511025455702 L173.91073566869105 66.54511025455702 L173.91073566869105 404.31929163331336 L151.79252785251867 404.31929163331336 L151.79252785251867 66.54511025455702  Z "></path><path id="nbfysCgPDn" d="M647.7890516558011 66.54511025455696 L669.9072594719735 66.54511025455696 L669.9072594719735 404.3192916333133 L647.7890516558011 404.3192916333133 L647.7890516558011 66.54511025455696  Z "></path><path id="c9tjZXpi77" d="M658.8481555638873 73.7035224741321 L658.8481555638873 397.16087941373814 "></path><path id="FfSI8zYimM" d="M168.3383189708182 73.70352247413221 L168.3383189708182 397.16087941373826 "></path><path id="oVCUGA685" d="M162.8516317606049 73.70352247413221 L162.8516317606049 397.16087941373826 "></path><path id="WEs6DpFFL3" d="M157.36494455039158 73.70352247413221 L157.36494455039158 397.16087941373826 "></path><path id="KfyfKvV78e" d="M653.3614683536739 73.7035224741321 L653.3614683536739 397.16087941373814 "></path><path id="Qe0g53csTP" d="M664.3348427741006 73.7035224741321 L664.3348427741006 397.16087941373814 "></path><path id="rtSNStM3pQ" d="M412.03590964659907 281.0793183907947 C412.03590964659907 292.9955199782396 412.03590964659907 388.3251326777989 412.03590964659907 400.2413342652438 C412.03590964659907 401.0757127969679 411.35850014086384 401.7531223027031 410.52412160913974 401.7531223027031 C410.52412160913974 401.7531223027031 410.52412160913974 401.7531223027031 410.52412160913974 401.7531223027031 C409.6897430774157 401.7531223027031 409.0123335716805 401.0757127969679 409.0123335716805 400.2413342652438 C409.0123335716805 388.3251326777989 409.0123335716805 292.9955199782396 409.0123335716805 281.0793183907947 C409.0123335716805 280.24493985907066 409.6897430774157 279.5675303533354 410.52412160913974 279.5675303533354 C411.35850014086384 279.5675303533354 412.03590964659907 280.24493985907066 412.03590964659907 281.0793183907947  Z "></path><path id="ysuOajnfgk" d="M412.03590964659907 120.04504877103435 C412.03590964659907 131.96125035847925 412.03590964659907 227.2908630580385 412.03590964659907 239.2070646454834 C412.03590964659907 240.0414431772075 411.35850014086384 240.71885268294272 410.52412160913974 240.71885268294272 C410.52412160913974 240.71885268294272 410.52412160913974 240.71885268294272 410.52412160913974 240.71885268294272 C409.6897430774157 240.71885268294272 409.0123335716805 240.0414431772075 409.0123335716805 239.2070646454834 C409.0123335716805 227.2908630580385 409.0123335716805 131.96125035847925 409.0123335716805 120.04504877103435 C409.0123335716805 119.21067023931028 409.6897430774157 118.53326073357505 410.52412160913974 118.53326073357505 C411.35850014086384 118.53326073357505 412.03590964659907 119.21067023931028 412.03590964659907 120.04504877103435  Z "></path><path id="woVcYWmMrc" d="M190.9166666666667 78.58333333333336 L374.17677626068934 78.58333333333336 L374.17677626068934 174.8962996842879 L190.9166666666667 174.8962996842879 L190.9166666666667 78.58333333333336  Z "></path><path id="Rqqnj6Nonm" d="M190.9166666666667 351.65897322426355 L374.17677626068934 351.65897322426355 L374.17677626068934 342.08379968428784 L190.9166666666667 342.08379968428784 L190.9166666666667 351.65897322426355  Z "></path><path id="pdrYXe8Q07" d="M190.9166666666667 368.37772322426355 L374.17677626068934 368.37772322426355 L374.17677626068934 358.80254968428784 L190.9166666666667 358.80254968428784 L190.9166666666667 368.37772322426355  Z "></path><path id="ognXcOOGRm" d="M190.91666666666669 385.09647322426355 L325.7571226362828 385.09647322426355 L325.7571226362828 375.52129968428784 L190.91666666666669 375.52129968428784 L190.91666666666669 385.09647322426355  Z "></path><path id="x4A9AMRuxb" d="M190.91666666666674 237.41145833333337 L282.546721463678 237.41145833333337 L282.546721463678 333.7244246842879 L190.91666666666674 333.7244246842879 L190.91666666666674 237.41145833333337  Z "></path><path id="Pe1d0ETIN" d="M296.24923227540023 268.06522322426355 L374.17677626068934 268.06522322426355 L374.17677626068934 258.49004968428784 L296.24923227540023 258.49004968428784 L296.24923227540023 268.06522322426355  Z "></path><path id="B635cVxD3D" d="M296.24923227540023 284.78397322426355 L374.17677626068934 284.78397322426355 L374.17677626068934 275.20879968428784 L296.24923227540023 275.20879968428784 L296.24923227540023 284.78397322426355  Z "></path><path id="CEgMhrDBJP" d="M296.24923227540023 301.50272322426355 L353.58732722059403 301.50272322426355 L353.58732722059403 291.92754968428784 L296.24923227540023 291.92754968428784 L296.24923227540023 301.50272322426355  Z "></path><path id="inz3rtjgbC" d="M296.24923227540023 318.22147322426343 L353.58732722059403 318.22147322426343 L353.58732722059403 308.6462996842877 L296.24923227540023 308.6462996842877 L296.24923227540023 318.22147322426343  Z "></path><path id="ehKpGHqlve" d="M190.9166666666667 192.83084822426358 L374.17677626068934 192.83084822426358 L374.17677626068934 183.2556746842878 L190.9166666666667 183.2556746842878 L190.9166666666667 192.83084822426358  Z "></path><path id="VehLBCFyo9" d="M190.9166666666667 209.54959822426358 L374.17677626068934 209.54959822426358 L374.17677626068934 199.9744246842878 L190.9166666666667 199.9744246842878 L190.9166666666667 209.54959822426358  Z "></path><path id="zjghmxwQam" d="M190.91666666666669 226.26834822426355 L325.7571226362828 226.26834822426355 L325.7571226362828 216.69317468428778 L190.91666666666669 216.69317468428778 L190.91666666666669 226.26834822426355  Z "></path><path id="Vi5sLLdADy" d="M447.41666666666674 237.6277232242636 L630.6767762606894 237.6277232242636 L630.6767762606894 333.94068957521813 L447.41666666666674 333.94068957521813 L447.41666666666674 237.6277232242636  Z "></path><path id="eDORsscgiB" d="M447.41666666666674 192.83084822426358 L630.6767762606894 192.83084822426358 L630.6767762606894 183.2556746842878 L447.41666666666674 183.2556746842878 L447.41666666666674 192.83084822426358  Z "></path><path id="tC8c01HeC1" d="M447.41666666666674 209.54959822426358 L630.6767762606894 209.54959822426358 L630.6767762606894 199.9744246842878 L447.41666666666674 199.9744246842878 L447.41666666666674 209.54959822426358  Z "></path><path id="qDEmlHkEXX" d="M447.4166666666667 226.26834822426358 L582.2571226362828 226.26834822426358 L582.2571226362828 216.6931746842878 L447.4166666666667 216.6931746842878 L447.4166666666667 226.26834822426358  Z "></path><path id="eCBcxenVx9" d="M447.41666666666674 78.58333333333324 L539.0467214636781 78.58333333333324 L539.0467214636781 174.89629968428778 L447.41666666666674 174.89629968428778 L447.41666666666674 78.58333333333324  Z "></path><path id="P4xnHFzheZ" d="M552.7492322754002 109.23709822426346 L630.6767762606893 109.23709822426346 L630.6767762606893 99.6619246842877 L552.7492322754002 99.6619246842877 L552.7492322754002 109.23709822426346  Z "></path><path id="cnCW4lRWA8" d="M552.7492322754002 125.95584822426346 L630.6767762606893 125.95584822426346 L630.6767762606893 116.3806746842877 L552.7492322754002 116.3806746842877 L552.7492322754002 125.95584822426346  Z "></path><path id="Wjng68ktSa" d="M552.7492322754002 142.67459822426346 L610.087327220594 142.67459822426346 L610.087327220594 133.0994246842877 L552.7492322754002 133.0994246842877 L552.7492322754002 142.67459822426346  Z "></path><path id="AxBlwBysyp" d="M552.7492322754002 159.39334822426346 L610.087327220594 159.39334822426346 L610.087327220594 149.8181746842877 L552.7492322754002 149.8181746842877 L552.7492322754002 159.39334822426346  Z "></path><path id="GomaCYBsXA" d="M447.41666666666674 351.8752381151938 L630.6767762606894 351.8752381151938 L630.6767762606894 342.3000645752181 L447.41666666666674 342.3000645752181 L447.41666666666674 351.8752381151938  Z "></path><path id="rd240aIoE7" d="M447.41666666666674 368.5939881151938 L630.6767762606894 368.5939881151938 L630.6767762606894 359.0188145752181 L447.41666666666674 359.0188145752181 L447.41666666666674 368.5939881151938  Z "></path><path id="mdlHdLnJFj" d="M447.4166666666667 385.3127381151938 L582.2571226362828 385.3127381151938 L582.2571226362828 375.7375645752181 L447.4166666666667 375.7375645752181 L447.4166666666667 385.3127381151938  Z "></path><path id="eaxM5ssmCR" d="M532.12173709303 316.4206248108571 L524.3472779428382 293.76852702740337 L538.8961962432218 276.779453689813 L553.4451145436054 293.76852702740337 L545.6706553934137 316.4206248108571 L532.12173709303 316.4206248108571  Z "></path><path id="IDiVUCs95P" d="M537.2025814556739 299.4315514732668 L540.5898110307697 299.4315514732668 L540.5898110307697 316.4206248108571 L537.2025814556739 316.4206248108571 L537.2025814556739 299.4315514732668  Z "></path><path id="h93Vs3WbPh" d="M543.1408183045138 298.5847440794928 C543.1408183045138 300.92741476841854 541.2388669321475 302.8293661407848 538.8961962432218 302.8293661407848 C536.553525554296 302.8293661407848 534.6515741819297 300.92741476841854 534.6515741819297 298.5847440794928 C534.6515741819297 296.24207339056704 536.553525554296 294.34012201820076 538.8961962432218 294.34012201820076 C541.2388669321475 294.34012201820076 543.1408183045138 296.24207339056704 543.1408183045138 298.5847440794928  Z "></path><path id="MjryatTf0O" d="M502.68409315015793 261.9535539193349 L575.2965894378708 261.9535539193349 L575.2965894378708 266.00018782703563 L502.68409315015793 266.00018782703563 L502.68409315015793 261.9535539193349  Z "></path><path id="QywBdGOh6v" d="M509.4915146771311 263.74050207016535 C509.4915146771311 267.4353861635239 506.4917375828439 270.43516325781115 502.79685348948533 270.43516325781115 C499.1019693961268 270.43516325781115 496.1021923018396 267.4353861635239 496.1021923018396 263.74050207016535 C496.1021923018396 260.0456179768068 499.1019693961268 257.0458408825196 502.79685348948533 257.0458408825196 C506.4917375828439 257.0458408825196 509.4915146771311 260.0456179768068 509.4915146771311 263.74050207016535  Z "></path><clipPath id="clipcizu9FV5VY"><use xlink:href="#QywBdGOh6v" opacity="1"></use></clipPath><path id="Cih50p1KUE" d="M502.68409315015793 303.4315514732668 C503.69260004304283 277.1284310732125 515.7946827576617 263.9768708731853 538.9903412940145 263.9768708731853 C562.1859998303671 263.9768708731853 574.2880825449859 277.1284310732125 575.2965894378708 303.4315514732668 "></path><path id="c2nKcjJIYx" d="M544.7861043440623 257.16944934621216 C545.344453857134 257.16944934621216 545.7977628209875 257.62275831006565 545.7977628209875 258.1811078231373 C545.7977628209875 259.3402604331469 545.7977628209875 268.6134813132236 545.7977628209875 269.7726339232332 C545.7977628209875 270.3309834363049 545.344453857134 270.78429240015834 544.7861043440623 270.78429240015834 C543.6269517340527 270.78429240015834 534.353730853976 270.78429240015834 533.1945782439665 270.78429240015834 C532.6362287308948 270.78429240015834 532.1829197670413 270.3309834363049 532.1829197670413 269.7726339232332 C532.1829197670413 268.6134813132236 532.1829197670413 259.3402604331469 532.1829197670413 258.1811078231373 C532.1829197670413 257.62275831006565 532.6362287308948 257.16944934621216 533.1945782439665 257.16944934621216 C534.353730853976 257.16944934621216 543.6269517340527 257.16944934621216 544.7861043440623 257.16944934621216  Z "></path><clipPath id="clippmDlVH3cD4"><use xlink:href="#c2nKcjJIYx" opacity="1"></use></clipPath><path id="DagUYj89W9" d="M252.81186643787038 94.94194744508495 C254.7214828819392 94.94194744508495 256.2718491513679 96.49231371451367 256.2718491513679 98.40193015858247 C256.2718491513679 102.36635894993572 256.2718491513679 134.08178928076163 256.2718491513679 138.04621807211487 C256.2718491513679 139.95583451618367 254.7214828819392 141.5062007856124 252.81186643787038 141.5062007856124 C248.84743764651716 141.5062007856124 217.13200731569123 141.5062007856124 213.16757852433796 141.5062007856124 C211.25796208026918 141.5062007856124 209.70759581084047 139.95583451618367 209.70759581084047 138.04621807211487 C209.70759581084047 134.08178928076163 209.70759581084047 102.36635894993572 209.70759581084047 98.40193015858247 C209.70759581084047 96.49231371451367 211.25796208026918 94.94194744508495 213.16757852433796 94.94194744508495 C217.13200731569123 94.94194744508495 248.84743764651716 94.94194744508495 252.81186643787038 94.94194744508495  Z "></path><clipPath id="clipuDRtTQcnYv"><use xlink:href="#DagUYj89W9" opacity="1"></use></clipPath><path id="Ahfb1qD9fw" d="M271.84496026917964 111.97343223200879 C273.75457671324847 111.97343223200879 275.3049429826772 113.52379850143751 275.3049429826772 115.43341494550631 C275.3049429826772 119.39784373685956 275.3049429826772 151.11327406768547 275.3049429826772 155.0777028590387 C275.3049429826772 156.9873193031075 273.75457671324847 158.53768557253625 271.84496026917964 158.53768557253625 C267.8805314778264 158.53768557253625 236.16510114700048 158.53768557253625 232.2006723556472 158.53768557253625 C230.29105591157844 158.53768557253625 228.74068964214973 156.9873193031075 228.74068964214973 155.0777028590387 C228.74068964214973 151.11327406768547 228.74068964214973 119.39784373685956 228.74068964214973 115.43341494550631 C228.74068964214973 113.52379850143751 230.29105591157844 111.97343223200879 232.2006723556472 111.97343223200879 C236.16510114700048 111.97343223200879 267.8805314778264 111.97343223200879 271.84496026917964 111.97343223200879  Z "></path><clipPath id="clipJwYIOQ7QnB"><use xlink:href="#Ahfb1qD9fw" opacity="1"></use></clipPath><path id="bqJ4nazrny" d="M258.2503436007129 262.8252875113016 C260.0924228693561 262.8252875113016 261.58795752113843 264.32082216308396 261.58795752113843 266.1629014317271 C261.58795752113843 269.98712074615855 261.58795752113843 300.5808752616103 261.58795752113843 304.40509457604173 C261.58795752113843 306.24717384468494 260.0924228693561 307.7427084964673 258.2503436007129 307.7427084964673 C254.42612428628146 307.7427084964673 223.83236977082973 307.7427084964673 220.00815045639825 307.7427084964673 C218.1660711877551 307.7427084964673 216.67053653597276 306.24717384468494 216.67053653597276 304.40509457604173 C216.67053653597276 300.5808752616103 216.67053653597276 269.98712074615855 216.67053653597276 266.1629014317271 C216.67053653597276 264.32082216308396 218.1660711877551 262.8252875113016 220.00815045639825 262.8252875113016 C223.83236977082973 262.8252875113016 254.42612428628146 262.8252875113016 258.2503436007129 262.8252875113016  Z "></path><clipPath id="clipsflG4JamQ9"><use xlink:href="#bqJ4nazrny" opacity="1"></use></clipPath><path id="CbRTvdLkUV" d="M222.5967362435971 257.8514325299387 C223.06563807422438 257.8514325299387 223.4463268686343 258.23212132434855 223.4463268686343 258.70102315497587 C223.4463268686343 259.6744793290839 223.4463268686343 267.46212872194815 223.4463268686343 268.4355848960562 C223.4463268686343 268.90448672668344 223.06563807422438 269.2851755210934 222.5967362435971 269.2851755210934 C221.62328006948906 269.2851755210934 213.8356306766248 269.2851755210934 212.86217450251675 269.2851755210934 C212.39327267188946 269.2851755210934 212.01258387747956 268.90448672668344 212.01258387747956 268.4355848960562 C212.01258387747956 267.46212872194815 212.01258387747956 259.6744793290839 212.01258387747956 258.70102315497587 C212.01258387747956 258.23212132434855 212.39327267188946 257.8514325299387 212.86217450251675 257.8514325299387 C213.8356306766248 257.8514325299387 221.62328006948906 257.8514325299387 222.5967362435971 257.8514325299387  Z "></path><clipPath id="clipSgMtSv52Uw"><use xlink:href="#CbRTvdLkUV" opacity="1"></use></clipPath><path id="sDWGB2HLB3" d="M264.7036936052535 257.8514325299387 C265.17259543588074 257.8514325299387 265.55328423029067 258.23212132434855 265.55328423029067 258.70102315497587 C265.55328423029067 259.6744793290839 265.55328423029067 267.46212872194815 265.55328423029067 268.4355848960562 C265.55328423029067 268.90448672668344 265.17259543588074 269.2851755210934 264.7036936052535 269.2851755210934 C263.73023743114544 269.2851755210934 255.94258803828117 269.2851755210934 254.96913186417314 269.2851755210934 C254.50023003354585 269.2851755210934 254.11954123913594 268.90448672668344 254.11954123913594 268.4355848960562 C254.11954123913594 267.46212872194815 254.11954123913594 259.6744793290839 254.11954123913594 258.70102315497587 C254.11954123913594 258.23212132434855 254.50023003354585 257.8514325299387 254.96913186417314 257.8514325299387 C255.94258803828117 257.8514325299387 263.73023743114544 257.8514325299387 264.7036936052535 257.8514325299387  Z "></path><clipPath id="clipQjC5sIxZZq"><use xlink:href="#sDWGB2HLB3" opacity="1"></use></clipPath><path id="u12bgH5p7V" d="M222.5967362435971 300.9272347003408 C223.06563807422438 300.9272347003408 223.4463268686343 301.3079234947507 223.4463268686343 301.776825325378 C223.4463268686343 302.75028149948605 223.4463268686343 310.5379308923503 223.4463268686343 311.5113870664583 C223.4463268686343 311.9802888970856 223.06563807422438 312.3609776914955 222.5967362435971 312.3609776914955 C221.62328006948906 312.3609776914955 213.8356306766248 312.3609776914955 212.86217450251675 312.3609776914955 C212.39327267188946 312.3609776914955 212.01258387747956 311.9802888970856 212.01258387747956 311.5113870664583 C212.01258387747956 310.5379308923503 212.01258387747956 302.75028149948605 212.01258387747956 301.776825325378 C212.01258387747956 301.3079234947507 212.39327267188946 300.9272347003408 212.86217450251675 300.9272347003408 C213.8356306766248 300.9272347003408 221.62328006948906 300.9272347003408 222.5967362435971 300.9272347003408  Z "></path><clipPath id="clipRsC3hIwXh0"><use xlink:href="#u12bgH5p7V" opacity="1"></use></clipPath><path id="Uc6jlGfB0V" d="M243.75 284.53583563704564 L244.09198627253477 311.8028556892614 L251.79230381984024 307.35707528047897 L257.7385351165867 317.65625000000006 L265.4388526638922 313.21046959121765 L259.4926213671457 302.91129487169655 L267.1929389144512 298.46551446291414 L243.75 284.53583563704564  Z "></path><path id="Hdbk5UQBEd" d="M332.8927705717087 94.94194744508495 C334.8023870157775 94.94194744508495 336.35275328520623 96.49231371451367 336.35275328520623 98.40193015858247 C336.35275328520623 102.36635894993572 336.35275328520623 134.08178928076163 336.35275328520623 138.04621807211487 C336.35275328520623 139.95583451618367 334.8023870157775 141.5062007856124 332.8927705717087 141.5062007856124 C328.9283417803555 141.5062007856124 297.21291144952954 141.5062007856124 293.2484826581763 141.5062007856124 C291.3388662141075 141.5062007856124 289.7884999446788 139.95583451618367 289.7884999446788 138.04621807211487 C289.7884999446788 134.08178928076163 289.7884999446788 102.36635894993572 289.7884999446788 98.40193015858247 C289.7884999446788 96.49231371451367 291.3388662141075 94.94194744508495 293.2484826581763 94.94194744508495 C297.21291144952954 94.94194744508495 328.9283417803555 94.94194744508495 332.8927705717087 94.94194744508495  Z "></path><clipPath id="clipiajGrEKQLF"><use xlink:href="#Hdbk5UQBEd" opacity="1"></use></clipPath><path id="yzLZ9QxFLp" d="M351.92586440301795 111.97343223200879 C353.8354808470868 111.97343223200879 355.3858471165155 113.52379850143751 355.3858471165155 115.43341494550631 C355.3858471165155 119.39784373685956 355.3858471165155 151.11327406768547 355.3858471165155 155.0777028590387 C355.3858471165155 156.9873193031075 353.8354808470868 158.53768557253625 351.92586440301795 158.53768557253625 C347.96143561166474 158.53768557253625 316.2460052808388 158.53768557253625 312.2815764894856 158.53768557253625 C310.37196004541676 158.53768557253625 308.82159377598805 156.9873193031075 308.82159377598805 155.0777028590387 C308.82159377598805 151.11327406768547 308.82159377598805 119.39784373685956 308.82159377598805 115.43341494550631 C308.82159377598805 113.52379850143751 310.37196004541676 111.97343223200879 312.2815764894856 111.97343223200879 C316.2460052808388 111.97343223200879 347.96143561166474 111.97343223200879 351.92586440301795 111.97343223200879  Z "></path><clipPath id="clipk2JfFOFBjt"><use xlink:href="#yzLZ9QxFLp" opacity="1"></use></clipPath><path id="Df0lSlsL9" d="M336.18905884746243 111.97343223200883 C337.401499298785 111.97343223200883 338.3858471165155 112.95778004973934 338.3858471165155 114.1702205010619 C338.3858471165155 116.68728818130404 338.3858471165155 136.82382962324107 338.3858471165155 139.3408973034832 C338.3858471165155 140.55333775480574 337.401499298785 141.53768557253628 336.18905884746243 141.53768557253628 C333.6719911672203 141.53768557253628 313.5354497252833 141.53768557253628 311.0183820450411 141.53768557253628 C309.80594159371856 141.53768557253628 308.82159377598805 140.55333775480574 308.82159377598805 139.3408973034832 C308.82159377598805 136.82382962324107 308.82159377598805 116.68728818130404 308.82159377598805 114.1702205010619 C308.82159377598805 112.95778004973934 309.80594159371856 111.97343223200883 311.0183820450411 111.97343223200883 C313.5354497252833 111.97343223200883 333.6719911672203 111.97343223200883 336.18905884746243 111.97343223200883  Z "></path><clipPath id="clipIAhKzbhlyF"><use xlink:href="#Df0lSlsL9" opacity="1"></use></clipPath><path id="DgFd2TDrVU" d="M311.6171996098842 114.28833035168388 L336.3527532852063 114.28833035168388 L336.3527532852063 138.9887060012789 L311.6171996098842 138.9887060012789 L311.6171996098842 114.28833035168388  Z "></path><path id="S2lbG7D4zH" d="M478.071212527481 97.24803602103421 C478.81642714101196 97.24803602103421 479.42144685787304 97.85305573789529 479.42144685787304 98.59827035142624 C479.42144685787304 99.67845781573986 479.42144685787304 108.31995753024881 479.42144685787304 109.40014499456242 C479.42144685787304 110.14535960809339 478.81642714101196 110.75037932495445 478.071212527481 110.75037932495445 C477.73554679674805 110.75037932495445 475.0502209508843 110.75037932495445 474.7145552201513 110.75037932495445 C473.96934060662034 110.75037932495445 473.36432088975926 110.14535960809339 473.36432088975926 109.40014499456242 C473.36432088975926 108.31995753024881 473.36432088975926 99.67845781573986 473.36432088975926 98.59827035142624 C473.36432088975926 97.85305573789529 473.96934060662034 97.24803602103421 474.7145552201513 97.24803602103421 C475.0502209508843 97.24803602103421 477.73554679674805 97.24803602103421 478.071212527481 97.24803602103421  Z "></path><path id="ky932FJvPR" d="M504.46513893353665 139.5999655505829 C504.46513893353665 140.34518016411386 503.8601192166756 140.95019988097494 503.1149046031447 140.95019988097494 C501.2245765405958 140.95019988097494 486.10195204020516 140.95019988097494 484.2116239776563 140.95019988097494 C483.46640936412535 140.95019988097494 482.8613896472643 140.34518016411386 482.8613896472643 139.5999655505829 C482.8613896472643 139.26429981984995 482.8613896472643 136.5789739739862 482.8613896472643 136.2433082432532 C482.8613896472643 135.49809362972223 483.46640936412535 134.89307391286118 484.2116239776563 134.89307391286118 C486.10195204020516 134.89307391286118 501.2245765405958 134.89307391286118 503.1149046031447 134.89307391286118 C503.8601192166756 134.89307391286118 504.46513893353665 135.49809362972223 504.46513893353665 136.2433082432532 C504.46513893353665 136.5789739739862 504.46513893353665 139.26429981984995 504.46513893353665 139.5999655505829  Z "></path><path id="rl9MzmemSC" d="M511.74883291019347 97.24803602103421 C512.4940475237245 97.24803602103421 513.0990672405856 97.85305573789529 513.0990672405856 98.59827035142624 C513.0990672405856 99.67845781573986 513.0990672405856 108.31995753024881 513.0990672405856 109.40014499456242 C513.0990672405856 110.14535960809339 512.4940475237245 110.75037932495445 511.74883291019347 110.75037932495445 C511.4131671794605 110.75037932495445 508.72784133359676 110.75037932495445 508.39217560286374 110.75037932495445 C507.6469609893328 110.75037932495445 507.0419412724717 110.14535960809339 507.0419412724717 109.40014499456242 C507.0419412724717 108.31995753024881 507.0419412724717 99.67845781573986 507.0419412724717 98.59827035142624 C507.0419412724717 97.85305573789529 507.6469609893328 97.24803602103421 508.39217560286374 97.24803602103421 C508.72784133359676 97.24803602103421 511.4131671794605 97.24803602103421 511.74883291019347 97.24803602103421  Z "></path><path id="xdlRqCXj1x" d="M477.5109283754305 97.24803602103421 L509.8156002053706 97.24803602103421 L509.8156002053706 103.99920767299433 L477.5109283754305 103.99920767299433 L477.5109283754305 97.24803602103421  Z "></path><path id="JwO1YMM6KX" d="M497.0388501163806 99.32386356635648 L497.0388501163806 135.05459727201082 L490.2876784644205 135.05459727201082 L490.2876784644205 99.32386356635648 L497.0388501163806 99.32386356635648  Z "></path><path id="xFa5ekdNq9" d="M511.8573564171222 150.174471028473 C512.6025710306532 150.174471028473 513.2075907475142 150.77949074533404 513.2075907475142 151.52470535886502 C513.2075907475142 151.860371089598 513.2075907475142 154.5456969354618 513.2075907475142 154.88136266619475 C513.2075907475142 155.62657727972572 512.6025710306532 156.23159699658677 511.8573564171222 156.23159699658677 C508.13222394673227 156.23159699658677 478.33116418361254 156.23159699658677 474.6060317132226 156.23159699658677 C473.86081709969164 156.23159699658677 473.25579738283056 155.62657727972572 473.25579738283056 154.88136266619475 C473.25579738283056 154.5456969354618 473.25579738283056 151.860371089598 473.25579738283056 151.52470535886502 C473.25579738283056 150.77949074533404 473.86081709969164 150.174471028473 474.6060317132226 150.174471028473 C478.33116418361254 150.174471028473 508.13222394673227 150.174471028473 511.8573564171222 150.174471028473  Z "></path><path id="zbhjqErBdX" d="M553.7768880401676 314.54433099642176 C554.3535961224026 314.54433099642176 554.8218099151676 315.01254478918685 554.8218099151676 315.58925287142176 C554.8218099151676 315.79891627015246 554.8218099151676 317.476223459998 554.8218099151676 317.6858868587287 C554.8218099151676 318.2625949409636 554.3535961224026 318.7308087337287 553.7768880401676 318.7308087337287 C550.7841281027335 318.7308087337287 526.8420486032609 318.7308087337287 523.8492886658269 318.7308087337287 C523.2725805835919 318.7308087337287 522.8043667908269 318.2625949409636 522.8043667908269 317.6858868587287 C522.8043667908269 317.476223459998 522.8043667908269 315.79891627015246 522.8043667908269 315.58925287142176 C522.8043667908269 315.01254478918685 523.2725805835919 314.54433099642176 523.8492886658269 314.54433099642176 C526.8420486032609 314.54433099642176 550.7841281027335 314.54433099642176 553.7768880401676 314.54433099642176  Z "></path><path id="Or56WeN4Us" d="M581.9912506255166 263.97687087318525 C581.9912506255166 267.6717549665438 578.9914735312293 270.67153206083105 575.2965894378708 270.67153206083105 C571.6017053445123 270.67153206083105 568.601928250225 267.6717549665438 568.601928250225 263.97687087318525 C568.601928250225 260.2819867798267 571.6017053445123 257.2822096855395 575.2965894378708 257.2822096855395 C578.9914735312293 257.2822096855395 581.9912506255166 260.2819867798267 581.9912506255166 263.97687087318525  Z "></path><clipPath id="clipZvCohbNkK9"><use xlink:href="#Or56WeN4Us" opacity="1"></use></clipPath></defs><g visibility="visible"><g visibility="visible"><g><use xlink:href="#Kghox1FZFM" opacity="1" fill="#e8eff0" fill-opacity="1"></use><g><use xlink:href="#Kghox1FZFM" opacity="1" fill-opacity="0" stroke="#5c717e" stroke-width="3" stroke-opacity="1"></use></g></g><g><use xlink:href="#b9reffAVQB" opacity="1" fill="#ffffff" fill-opacity="1"></use><g><use xlink:href="#b9reffAVQB" opacity="1" fill-opacity="0" stroke="#5c717e" stroke-width="3" stroke-opacity="1"></use></g><g><filter id="shadow11407071" x="135.8932749653685" y="44.93627348927876" width="263.5822865538971" height="383.1920677365472" filterUnits="userSpaceOnUse" primitiveUnits="userSpaceOnUse"><feFlood></feFlood><feComposite in2="SourceAlpha" operator="out"></feComposite><feGaussianBlur stdDeviation="1"></feGaussianBlur><feOffset dx="1" dy="1" result="afterOffset"></feOffset><feFlood flood-color="#000000" flood-opacity="0.5"></feFlood><feComposite in2="afterOffset" operator="in"></feComposite><feMorphology operator="dilate" radius="1"></feMorphology><feComposite in2="SourceAlpha" operator="in"></feComposite></filter><g filter="url(#shadow11407071)"><use xlink:href="#b9reffAVQB" opacity="1" fill="#ffffff" fill-opacity="1"></use><g><use xlink:href="#b9reffAVQB" opacity="1" fill-opacity="0" stroke="#5c717e" stroke-width="3" stroke-opacity="1"></use></g></g></g></g><g><use xlink:href="#Qv5cj9QN1F" opacity="1" fill="#ffffff" fill-opacity="1"></use><g><use xlink:href="#Qv5cj9QN1F" opacity="1" fill-opacity="0" stroke="#5c717e" stroke-width="3" stroke-opacity="1"></use></g></g><g><use xlink:href="#O7wFXv7Kqb" opacity="1" fill="#fe8899" fill-opacity="1"></use><g><use xlink:href="#O7wFXv7Kqb" opacity="1" fill-opacity="0" stroke="#5c717e" stroke-width="2" stroke-opacity="1"></use></g></g><g><use xlink:href="#jDCz3LxfqD" opacity="1" fill="#ffffff" fill-opacity="1"></use><g><use xlink:href="#jDCz3LxfqD" opacity="1" fill-opacity="0" stroke="#5c717e" stroke-width="3" stroke-opacity="1"></use></g></g><g><use xlink:href="#Dw5xMvjLTZ" opacity="1" fill="url(#gradientft7udq2vTu)"></use></g><g><use xlink:href="#dDigh7Bsx1" opacity="1" fill="url(#gradientApsuFwpwJq)"></use></g><g><use xlink:href="#fwoop4EIbZ" opacity="1" fill="#e8eff0" fill-opacity="1"></use><g><use xlink:href="#fwoop4EIbZ" opacity="1" fill-opacity="0" stroke="#5c717e" stroke-width="2" stroke-opacity="1"></use></g></g><g><use xlink:href="#nbfysCgPDn" opacity="1" fill="#e8eff0" fill-opacity="1"></use><g><use xlink:href="#nbfysCgPDn" opacity="1" fill-opacity="0" stroke="#5c717e" stroke-width="2" stroke-opacity="1"></use></g></g><g><g><use xlink:href="#c9tjZXpi77" opacity="1" fill-opacity="0" stroke="#5c717e" stroke-width="1" stroke-opacity="1"></use></g></g><g><g><use xlink:href="#FfSI8zYimM" opacity="1" fill-opacity="0" stroke="#5c717e" stroke-width="1" stroke-opacity="1"></use></g></g><g><g><use xlink:href="#oVCUGA685" opacity="1" fill-opacity="0" stroke="#5c717e" stroke-width="1" stroke-opacity="1"></use></g></g><g><g><use xlink:href="#WEs6DpFFL3" opacity="1" fill-opacity="0" stroke="#5c717e" stroke-width="1" stroke-opacity="1"></use></g></g><g><g><use xlink:href="#KfyfKvV78e" opacity="1" fill-opacity="0" stroke="#5c717e" stroke-width="1" stroke-opacity="1"></use></g></g><g><g><use xlink:href="#Qe0g53csTP" opacity="1" fill-opacity="0" stroke="#5c717e" stroke-width="1" stroke-opacity="1"></use></g></g><g><use xlink:href="#rtSNStM3pQ" opacity="1" fill="#5c717e" fill-opacity="1"></use></g><g><use xlink:href="#ysuOajnfgk" opacity="1" fill="#5c717e" fill-opacity="1"></use></g><g><use xlink:href="#woVcYWmMrc" opacity="1" fill="#eaedef" fill-opacity="1"></use></g><g><use xlink:href="#Rqqnj6Nonm" opacity="1" fill="#eaedef" fill-opacity="1"></use></g><g><use xlink:href="#pdrYXe8Q07" opacity="1" fill="#eaedef" fill-opacity="1"></use></g><g><use xlink:href="#ognXcOOGRm" opacity="1" fill="#eaedef" fill-opacity="1"></use></g><g><use xlink:href="#x4A9AMRuxb" opacity="1" fill="#eaedef" fill-opacity="1"></use></g><g><use xlink:href="#Pe1d0ETIN" opacity="1" fill="#eaedef" fill-opacity="1"></use></g><g><use xlink:href="#B635cVxD3D" opacity="1" fill="#eaedef" fill-opacity="1"></use></g><g><use xlink:href="#CEgMhrDBJP" opacity="1" fill="#eaedef" fill-opacity="1"></use></g><g><use xlink:href="#inz3rtjgbC" opacity="1" fill="#eaedef" fill-opacity="1"></use></g><g><use xlink:href="#ehKpGHqlve" opacity="1" fill="#eaedef" fill-opacity="1"></use></g><g><use xlink:href="#VehLBCFyo9" opacity="1" fill="#eaedef" fill-opacity="1"></use></g><g><use xlink:href="#zjghmxwQam" opacity="1" fill="#eaedef" fill-opacity="1"></use></g><g><use xlink:href="#Vi5sLLdADy" opacity="1" fill="#eaedef" fill-opacity="1"></use></g><g><use xlink:href="#eDORsscgiB" opacity="1" fill="#eaedef" fill-opacity="1"></use></g><g><use xlink:href="#tC8c01HeC1" opacity="1" fill="#eaedef" fill-opacity="1"></use></g><g><use xlink:href="#qDEmlHkEXX" opacity="1" fill="#eaedef" fill-opacity="1"></use></g><g><use xlink:href="#eCBcxenVx9" opacity="1" fill="#eaedef" fill-opacity="1"></use></g><g><use xlink:href="#P4xnHFzheZ" opacity="1" fill="#eaedef" fill-opacity="1"></use></g><g><use xlink:href="#cnCW4lRWA8" opacity="1" fill="#eaedef" fill-opacity="1"></use></g><g><use xlink:href="#Wjng68ktSa" opacity="1" fill="#eaedef" fill-opacity="1"></use></g><g><use xlink:href="#AxBlwBysyp" opacity="1" fill="#eaedef" fill-opacity="1"></use></g><g><use xlink:href="#GomaCYBsXA" opacity="1" fill="#eaedef" fill-opacity="1"></use></g><g><use xlink:href="#rd240aIoE7" opacity="1" fill="#eaedef" fill-opacity="1"></use></g><g><use xlink:href="#mdlHdLnJFj" opacity="1" fill="#eaedef" fill-opacity="1"></use></g><g><use xlink:href="#eaxM5ssmCR" opacity="1" fill="#eaedef" fill-opacity="1"></use><g><use xlink:href="#eaxM5ssmCR" opacity="1" fill-opacity="0" stroke="#ffffff" stroke-width="4" stroke-opacity="1"></use></g></g><g><use xlink:href="#IDiVUCs95P" opacity="1" fill="#ffffff" fill-opacity="1"></use></g><g><use xlink:href="#h93Vs3WbPh" opacity="1" fill="#eaedef" fill-opacity="1"></use><g><use xlink:href="#h93Vs3WbPh" opacity="1" fill-opacity="0" stroke="#ffffff" stroke-width="2" stroke-opacity="1"></use></g></g><g><use xlink:href="#MjryatTf0O" opacity="1" fill="#ffffff" fill-opacity="1"></use></g><g><use xlink:href="#QywBdGOh6v" opacity="1" fill="#eaedef" fill-opacity="1"></use><g clip-path="url(#clipcizu9FV5VY)"><use xlink:href="#QywBdGOh6v" opacity="1" fill-opacity="0" stroke="#ffffff" stroke-width="8" stroke-opacity="1"></use></g></g><g><g><use xlink:href="#Cih50p1KUE" opacity="1" fill-opacity="0" stroke="#ffffff" stroke-width="5" stroke-opacity="1"></use></g></g><g><use xlink:href="#c2nKcjJIYx" opacity="1" fill="#eaedef" fill-opacity="1"></use><g clip-path="url(#clippmDlVH3cD4)"><use xlink:href="#c2nKcjJIYx" opacity="1" fill-opacity="0" stroke="#ffffff" stroke-width="6" stroke-opacity="1"></use></g></g><g><use xlink:href="#DagUYj89W9" opacity="1" fill="#eaedef" fill-opacity="1"></use><g clip-path="url(#clipuDRtTQcnYv)"><use xlink:href="#DagUYj89W9" opacity="1" fill-opacity="0" stroke="#ffffff" stroke-width="10" stroke-opacity="1"></use></g></g><g><use xlink:href="#Ahfb1qD9fw" opacity="1" fill="#eaedef" fill-opacity="1"></use><g clip-path="url(#clipJwYIOQ7QnB)"><use xlink:href="#Ahfb1qD9fw" opacity="1" fill-opacity="0" stroke="#ffffff" stroke-width="10" stroke-opacity="1"></use></g></g><g><use xlink:href="#bqJ4nazrny" opacity="1" fill="#eaedef" fill-opacity="1"></use><g clip-path="url(#clipsflG4JamQ9)"><use xlink:href="#bqJ4nazrny" opacity="1" fill-opacity="0" stroke="#ffffff" stroke-width="10" stroke-opacity="1"></use></g></g><g><use xlink:href="#CbRTvdLkUV" opacity="1" fill="#eaedef" fill-opacity="1"></use><g clip-path="url(#clipSgMtSv52Uw)"><use xlink:href="#CbRTvdLkUV" opacity="1" fill-opacity="0" stroke="#ffffff" stroke-width="6" stroke-opacity="1"></use></g></g><g><use xlink:href="#sDWGB2HLB3" opacity="1" fill="#eaedef" fill-opacity="1"></use><g clip-path="url(#clipQjC5sIxZZq)"><use xlink:href="#sDWGB2HLB3" opacity="1" fill-opacity="0" stroke="#ffffff" stroke-width="6" stroke-opacity="1"></use></g></g><g><use xlink:href="#u12bgH5p7V" opacity="1" fill="#eaedef" fill-opacity="1"></use><g clip-path="url(#clipRsC3hIwXh0)"><use xlink:href="#u12bgH5p7V" opacity="1" fill-opacity="0" stroke="#ffffff" stroke-width="6" stroke-opacity="1"></use></g></g><g><use xlink:href="#Uc6jlGfB0V" opacity="1" fill="#e4e7e9" fill-opacity="1"></use><g><use xlink:href="#Uc6jlGfB0V" opacity="1" fill-opacity="0" stroke="#ffffff" stroke-width="3" stroke-opacity="1"></use></g></g><g><use xlink:href="#Hdbk5UQBEd" opacity="1" fill="#eaedef" fill-opacity="1"></use><g clip-path="url(#clipiajGrEKQLF)"><use xlink:href="#Hdbk5UQBEd" opacity="1" fill-opacity="0" stroke="#ffffff" stroke-width="10" stroke-opacity="1"></use></g></g><g><use xlink:href="#yzLZ9QxFLp" opacity="1" fill="#eaedef" fill-opacity="1"></use><g clip-path="url(#clipk2JfFOFBjt)"><use xlink:href="#yzLZ9QxFLp" opacity="1" fill-opacity="0" stroke="#ffffff" stroke-width="10" stroke-opacity="1"></use></g></g><g><use xlink:href="#Df0lSlsL9" opacity="1" fill="#eaedef" fill-opacity="1"></use><g clip-path="url(#clipIAhKzbhlyF)"><use xlink:href="#Df0lSlsL9" opacity="1" fill-opacity="0" stroke="#ffffff" stroke-width="6" stroke-opacity="1"></use></g></g><g><use xlink:href="#DgFd2TDrVU" opacity="1" fill="#ffffff" fill-opacity="1"></use></g><g><use xlink:href="#S2lbG7D4zH" opacity="1" fill="#ffffff" fill-opacity="1"></use></g><g><use xlink:href="#ky932FJvPR" opacity="1" fill="#ffffff" fill-opacity="1"></use></g><g><use xlink:href="#rl9MzmemSC" opacity="1" fill="#ffffff" fill-opacity="1"></use></g><g><use xlink:href="#xdlRqCXj1x" opacity="1" fill="#ffffff" fill-opacity="1"></use></g><g><use xlink:href="#JwO1YMM6KX" opacity="1" fill="#ffffff" fill-opacity="1"></use></g><g><use xlink:href="#xFa5ekdNq9" opacity="1" fill="#ffffff" fill-opacity="1"></use></g><g><use xlink:href="#zbhjqErBdX" opacity="1" fill="#ffffff" fill-opacity="1"></use></g><g><use xlink:href="#Or56WeN4Us" opacity="1" fill="#eaedef" fill-opacity="1"></use><g clip-path="url(#clipZvCohbNkK9)"><use xlink:href="#Or56WeN4Us" opacity="1" fill-opacity="0" stroke="#ffffff" stroke-width="8" stroke-opacity="1"></use></g></g></g></g></svg>